<?xml version="1.0" encoding="utf-8"?>
<!-- Generator: Adobe Illustrator 25.2.0, SVG Export Plug-In . SVG Version: 6.00 Build 0)  -->
<svg version="1.1" id="Layer_1" focusable="false" xmlns="http://www.w3.org/2000/svg" xmlns:xlink="http://www.w3.org/1999/xlink"
	 x="0px" y="0px" viewBox="0 0 350 350" style="enable-background:new 0 0 350 350;" xml:space="preserve">
<style type="text/css">
	.st0{fill:#F4C1C1;}
</style>
<rect class="st0" width="350" height="350"/>
<path d="M294.4,172l-49.5-18.6V97.7c0-7.7-4.8-14.6-12-17.3l-51.4-19.2c-4.2-1.6-8.8-1.6-13,0l-51.4,19.2c-7.2,2.7-12,9.6-12,17.3
	v55.7L55.5,172c-7.2,2.7-12,9.6-12,17.3v56.5c0,7,4,13.4,10.2,16.5l51.4,25.6c5.2,2.6,11.3,2.6,16.5,0l53.4-26.7l53.4,26.7
	c5.2,2.6,11.3,2.6,16.5,0l51.4-25.6c6.3-3.2,10.2-9.5,10.2-16.5v-56.5C306.3,181.6,301.6,174.7,294.4,172z M227.4,153.9l-43.7,16.4
	v-35l43.7-19V153.9z M122.6,97L175,77.4L227.4,97v0.3L175,118.6l-52.4-21.3C122.6,97.4,122.6,97,122.6,97z M165.8,246.5l-43.7,21.8
	v-40.6l43.7-19.9V246.5z M165.8,188.9l-52.4,21.3L61,188.9v-0.3l52.4-19.6l52.4,19.6V188.9z M289,246.5l-43.7,21.8v-40.6l43.7-19.9
	L289,246.5L289,246.5z M289,188.9l-52.4,21.3l-52.4-21.3v-0.3l52.4-19.6l52.4,19.6V188.9z"/>
</svg>
