<svg xmlns="http://www.w3.org/2000/svg" viewBox="0 0 26.61 22.4"><g id="Layer_2" data-name="Layer 2"><g id="Layer_1-2" data-name="Layer 1"><path d="M7.69,1.45A52.18,52.18,0,0,1,4.21,20.5a1.51,1.51,0,0,0,1,1.84,1.54,1.54,0,0,0,1.85-1A54.73,54.73,0,0,0,10.69,1.45a1.5,1.5,0,0,0-3,0Z"/><path d="M2.27,13.33a14.74,14.74,0,0,1,6.06-1.65c2.27-.12,4.56.52,6.8,0a6.55,6.55,0,0,0,4.15-9.55c-.88-1.72-3.47-.2-2.59,1.51a3.49,3.49,0,0,1-.43,4C15.13,8.91,13.53,9,11.9,8.83a24.66,24.66,0,0,0-5.63.06A17.92,17.92,0,0,0,.76,10.74c-1.72.88-.21,3.47,1.51,2.59Z"/><path d="M7.61,9.35c1.27,3.94,3,8.27,7.34,9.62a6,6,0,0,0,5.73-1.09,5.21,5.21,0,0,0,1.82-5.2c-.46-1.87-3.35-1.08-2.89.8.07.32,0-.05,0,.25a1.85,1.85,0,0,1,0,.47c0-.24-.06.18-.08.23-.08.27,0,0-.09.24a2.75,2.75,0,0,1-1,1.15,3.26,3.26,0,0,1-3.19.07c-2.83-1.32-3.87-4.57-4.76-7.34a1.5,1.5,0,1,0-2.89.8Z"/><path d="M23.49,2.5a2.49,2.49,0,0,1,.15.28l-.16-.36a2.38,2.38,0,0,1,.16.58l-.05-.4a2.58,2.58,0,0,1,0,.68l.05-.4a2.57,2.57,0,0,1-.16.62l.15-.36a2.94,2.94,0,0,1-.25.46,1.09,1.09,0,0,0-.18.55,1,1,0,0,0,0,.6,1.49,1.49,0,0,0,.69.9,1.54,1.54,0,0,0,1.15.15l.36-.15A1.55,1.55,0,0,0,26,5.11a3.86,3.86,0,0,0,.46-1,4.08,4.08,0,0,0,.18-1.09A3.91,3.91,0,0,0,26.08,1a1.5,1.5,0,0,0-2-.54,1.55,1.55,0,0,0-.69.9,1.56,1.56,0,0,0,.15,1.16Z"/></g></g></svg>