<?xml version="1.0" encoding="utf-8"?>
<!-- Generator: Adobe Illustrator 25.2.0, SVG Export Plug-In . SVG Version: 6.00 Build 0)  -->
<svg version="1.1" id="Layer_1" focusable="false" xmlns="http://www.w3.org/2000/svg" xmlns:xlink="http://www.w3.org/1999/xlink"
	 x="0px" y="0px" viewBox="0 0 500 350" style="enable-background:new 0 0 500 350;" xml:space="preserve">
<style type="text/css">
	.st0{fill:#F4C1C1;}
</style>
<rect y="-125" class="st0" width="500" height="600"/>
<path d="M381.8,171.7l-54.7-20.5V89.7c0-8.5-5.3-16.1-13.3-19.1l-56.7-21.2c-4.6-1.8-9.7-1.8-14.3,0l-56.7,21.2
	c-8,3-13.3,10.6-13.3,19.1v61.5l-54.7,20.5c-7.9,3-13.2,10.6-13.2,19.1v62.4c0,7.7,4.4,14.8,11.3,18.2l56.7,28.3
	c5.7,2.9,12.5,2.9,18.2,0l58.9-29.5l58.9,29.5c5.7,2.9,12.5,2.9,18.2,0l56.7-28.3c6.9-3.5,11.3-10.5,11.3-18.2v-62.4
	C395,182.3,389.8,174.7,381.8,171.7z M307.8,151.7l-48.2,18.1v-38.6l48.2-21V151.7z M192.2,88.9L250,67.3l57.8,21.6v0.3L250,112.7
	l-57.8-23.5C192.2,89.3,192.2,88.9,192.2,88.9z M239.8,253.9l-48.2,24.1v-44.8l48.2-22V253.9z M239.8,190.4L182,213.9l-57.8-23.5
	v-0.3l57.8-21.6l57.8,21.6V190.4z M375.8,253.9l-48.2,24.1v-44.8l48.2-22V253.9z M375.8,190.4L318,213.9l-57.8-23.5v-0.3l57.8-21.6
	l57.8,21.6V190.4z"/>
</svg>
