<?xml version="1.0" encoding="utf-8"?>
<!-- Generator: Adobe Illustrator 25.1.0, SVG Export Plug-In . SVG Version: 6.00 Build 0)  -->
<svg version="1.1" id="Layer_1" xmlns="http://www.w3.org/2000/svg" xmlns:xlink="http://www.w3.org/1999/xlink" x="0px" y="0px"
	 viewBox="0 0 100 125" style="enable-background:new 0 0 100 125;" xml:space="preserve">
<path d="M73.5,42.6c-0.6-0.1-1.2-0.2-1.7-0.2c-0.7,0-1.4,0.1-2.1,0.3c-0.3-3.4-2.8-6.4-6.3-7.2c-0.6-0.1-1.2-0.2-1.7-0.2
	c-0.6,0-1.1,0.1-1.7,0.2l3.8-17.7c1.1-5.1-2.2-10.2-7.3-11.3c-0.7-0.2-1.3-0.2-2-0.2c-4.4,0-8.3,3-9.3,7.5l-3.1,14.5l-3.1-14.5
	c-1-4.5-4.9-7.5-9.3-7.5c-0.7,0-1.3,0.1-2,0.2c-5.1,1.1-8.4,6.2-7.3,11.3l5.7,26.5h4.9L25,16.8c-0.5-2.6,1.1-5.1,3.6-5.6
	c0.3-0.1,0.7-0.1,1-0.1c2.2,0,4.2,1.6,4.6,3.8l3.1,14.5l3.2,15.1h2.8l3.2-15.1l3.1-14.5c0.5-2.2,2.4-3.8,4.6-3.8c0.3,0,0.7,0,1,0.1
	c2.6,0.6,4.2,3.1,3.7,5.6l-6,27.7L52,50H29c-3.9,0-7.1,3.2-7.1,7.1v8.1v6.7c0,12.1,9.8,21.9,21.9,21.9h12.4
	c12.1,0,21.9-9.8,21.9-21.9V60.1l1.7-8C80.6,47.8,77.8,43.5,73.5,42.6z M72.5,47.2c0.9,0.2,1.6,0.7,2.1,1.5c0.5,0.8,0.6,1.6,0.5,2.5
	l-2.6,12.1c-0.3,1.5-1.7,2.6-3.2,2.6c-0.2,0-0.5,0-0.7-0.1c-0.9-0.2-1.6-0.7-2.1-1.4c-0.5-0.8-0.6-1.6-0.5-2.5l2.6-12.1
	c0.3-1.5,1.7-2.6,3.2-2.6C72,47.2,72.2,47.2,72.5,47.2z M58.4,42.7c0.3-1.5,1.7-2.6,3.2-2.6c0.2,0,0.5,0,0.7,0.1
	c0.9,0.2,1.6,0.7,2.1,1.5c0.5,0.8,0.6,1.6,0.5,2.5L63,52.7c-1.6-1.6-3.8-2.7-6.2-2.7l1.1-5.3L58.4,42.7z M56.1,89H43.7
	c-9.4,0-17.1-7.7-17.1-17.1v-6.7v-8.1c0-1.3,1.1-2.4,2.4-2.4h27.6c2.4,0,4.3,1.9,4.3,4.3s-1.9,4.3-4.3,4.3H39.9v4.7h0.5
	c4.5,0,8.1,3.6,8.1,8.1v3.3h4.8v-3.3c0-3.1-1.1-5.9-2.9-8.1h6.2c2,0,3.9-0.7,5.4-1.8c1.1,2.1,3,3.7,5.5,4.2c0.6,0.1,1.2,0.2,1.7,0.2
	c1.4,0,2.8-0.4,4-1.1v2.3C73.2,81.3,65.5,89,56.1,89z"/>
</svg>
